{
    "asset" : {
        "generator" : "Khronos glTF Blender I/O v1.2.75",
        "version" : "2.0"
    },
    "scene" : 2,
    "scenes" : [
        {
            "name" : "Scene"
        },
        {
            "name" : "Scene.001"
        },
        {
            "name" : "Scene.002",
            "nodes" : [
                0
            ]
        }
    ],
    "nodes" : [
        {
            "mesh" : 0,
            "name" : "Cylinder.003",
            "translation" : [
                -0.3162243962287903,
                2.9223945140838623,
                -2.682209014892578e-06
            ]
        }
    ],
    "materials" : [
        {
            "doubleSided" : true,
            "emissiveFactor" : [
                0,
                0,
                0
            ],
            "name" : "coin.001",
            "pbrMetallicRoughness" : {
                "baseColorFactor" : [
                    0.8000000715255737,
                    0.17640982568264008,
                    0,
                    1
                ],
                "metallicFactor" : 0.8799999952316284,
                "roughnessFactor" : 0.4527272582054138
            }
        },
        {
            "doubleSided" : true,
            "emissiveFactor" : [
                0,
                0,
                0
            ],
            "name" : "coin face.001",
            "pbrMetallicRoughness" : {
                "baseColorTexture" : {
                    "index" : 0,
                    "texCoord" : 0
                },
                "metallicFactor" : 0,
                "roughnessFactor" : 0.5
            }
        }
    ],
    "meshes" : [
        {
            "name" : "Cylinder.001",
            "primitives" : [
                {
                    "attributes" : {
                        "POSITION" : 0,
                        "NORMAL" : 1,
                        "TEXCOORD_0" : 2
                    },
                    "indices" : 3,
                    "material" : 0
                },
                {
                    "attributes" : {
                        "POSITION" : 4,
                        "NORMAL" : 5,
                        "TEXCOORD_0" : 6
                    },
                    "indices" : 7,
                    "material" : 1
                }
            ]
        }
    ],
    "textures" : [
        {
            "source" : 0
        }
    ],
    "images" : [
        {
            "bufferView" : 8,
            "mimeType" : "image/png",
            "name" : "pirate"
        }
    ],
    "accessors" : [
        {
            "bufferView" : 0,
            "componentType" : 5126,
            "count" : 4011,
            "max" : [
                3.3357276916503906,
                3.3357317447662354,
                0.3953501582145691
            ],
            "min" : [
                -3.335726499557495,
                -3.3357231616973877,
                -0.3953501582145691
            ],
            "type" : "VEC3"
        },
        {
            "bufferView" : 1,
            "componentType" : 5126,
            "count" : 4011,
            "type" : "VEC3"
        },
        {
            "bufferView" : 2,
            "componentType" : 5126,
            "count" : 4011,
            "type" : "VEC2"
        },
        {
            "bufferView" : 3,
            "componentType" : 5123,
            "count" : 14976,
            "type" : "SCALAR"
        },
        {
            "bufferView" : 4,
            "componentType" : 5126,
            "count" : 128,
            "max" : [
                1.9763896465301514,
                1.9763939380645752,
                0.3953501582145691
            ],
            "min" : [
                -1.9763877391815186,
                -1.9763842821121216,
                -0.3953501582145691
            ],
            "type" : "VEC3"
        },
        {
            "bufferView" : 5,
            "componentType" : 5126,
            "count" : 128,
            "type" : "VEC3"
        },
        {
            "bufferView" : 6,
            "componentType" : 5126,
            "count" : 128,
            "type" : "VEC2"
        },
        {
            "bufferView" : 7,
            "componentType" : 5123,
            "count" : 372,
            "type" : "SCALAR"
        }
    ],
    "bufferViews" : [
        {
            "buffer" : 0,
            "byteLength" : 48132,
            "byteOffset" : 0
        },
        {
            "buffer" : 0,
            "byteLength" : 48132,
            "byteOffset" : 48132
        },
        {
            "buffer" : 0,
            "byteLength" : 32088,
            "byteOffset" : 96264
        },
        {
            "buffer" : 0,
            "byteLength" : 29952,
            "byteOffset" : 128352
        },
        {
            "buffer" : 0,
            "byteLength" : 1536,
            "byteOffset" : 158304
        },
        {
            "buffer" : 0,
            "byteLength" : 1536,
            "byteOffset" : 159840
        },
        {
            "buffer" : 0,
            "byteLength" : 1024,
            "byteOffset" : 161376
        },
        {
            "buffer" : 0,
            "byteLength" : 744,
            "byteOffset" : 162400
        },
        {
            "buffer" : 0,
            "byteLength" : 24055,
            "byteOffset" : 163144
        }
    ],
    "buffers" : [
        {
            "byteLength" : 187200,
            "uri" : "data:application/octet-stream;base64,"
        }
    ]
}
