{
    "asset" : {
        "generator" : "Khronos glTF Blender I/O v1.2.75",
        "version" : "2.0"
    },
    "scene" : 0,
    "scenes" : [
        {
            "name" : "Scene",
            "nodes" : [
                0,
                1,
                2,
                3,
                4
            ]
        },
        {
            "name" : "Scene.001",
            "nodes" : [
                5,
                6,
                7,
                8,
                9,
                10
            ]
        }
    ],
    "nodes" : [
        {
            "name" : "Light",
            "rotation" : [
                0.12319082021713257,
                0.7464333772659302,
                0.2515179514884949,
                0.6036555171012878
            ],
            "translation" : [
                -0.24039268493652344,
                9.005444526672363,
                3.98468017578125
            ]
        },
        {
            "name" : "Camera",
            "rotation" : [
                0.7031071186065674,
                -0.008113902062177658,
                0.008025243878364563,
                0.7109923958778381
            ],
            "translation" : [
                -0.7231682538986206,
                3.113961696624756,
                12.274016380310059
            ]
        },
        {
            "mesh" : 0,
            "name" : "Cylinder.001",
            "translation" : [
                -0.3162248730659485,
                2.922396183013916,
                -2.682344984350493e-06
            ]
        },
        {
            "name" : "light warm",
            "rotation" : [
                0.3190169632434845,
                -0.025627199560403824,
                0.0027714313473552465,
                0.9473984241485596
            ],
            "scale" : [
                1.7041749954223633,
                1.7041751146316528,
                1.7041749954223633
            ],
            "translation" : [
                -2.9078867435455322,
                7.78564977645874,
                3.5798699855804443
            ]
        },
        {
            "name" : "light cool",
            "rotation" : [
                0.3190169632434845,
                -0.025627199560403824,
                0.0027714313473552465,
                0.9473984241485596
            ],
            "scale" : [
                1.7041749954223633,
                1.7041751146316528,
                1.7041749954223633
            ],
            "translation" : [
                2.1157162189483643,
                7.78564977645874,
                3.5798699855804443
            ]
        },
        {
            "name" : "Light.001",
            "rotation" : [
                0.12319082021713257,
                0.7464333772659302,
                0.2515179514884949,
                0.6036555171012878
            ],
            "translation" : [
                -0.24039268493652344,
                9.005444526672363,
                3.98468017578125
            ]
        },
        {
            "name" : "Camera.001",
            "rotation" : [
                0.7031071186065674,
                -0.008113902062177658,
                0.008025243878364563,
                0.7109923958778381
            ],
            "translation" : [
                -0.7231682538986206,
                3.113961696624756,
                12.274016380310059
            ]
        },
        {
            "mesh" : 1,
            "name" : "studio plane.001",
            "rotation" : [
                0,
                -0.7071067690849304,
                0,
                0.7071067690849304
            ],
            "scale" : [
                3.234684705734253,
                3.234684705734253,
                3.2721457481384277
            ],
            "translation" : [
                0,
                -1,
                0
            ]
        },
        {
            "name" : "light warm.001",
            "rotation" : [
                0.3190169632434845,
                -0.025627199560403824,
                0.0027714313473552465,
                0.9473984241485596
            ],
            "scale" : [
                1.7041749954223633,
                1.7041751146316528,
                1.7041749954223633
            ],
            "translation" : [
                -2.9078867435455322,
                7.78564977645874,
                3.5798699855804443
            ]
        },
        {
            "name" : "light cool.001",
            "rotation" : [
                0.3190169632434845,
                -0.025627199560403824,
                0.0027714313473552465,
                0.9473984241485596
            ],
            "scale" : [
                1.7041749954223633,
                1.7041751146316528,
                1.7041749954223633
            ],
            "translation" : [
                2.1157162189483643,
                7.78564977645874,
                3.5798699855804443
            ]
        },
        {
            "name" : "Empty.001",
            "rotation" : [
                0.7071068286895752,
                0,
                0,
                0.7071067094802856
            ],
            "translation" : [
                22.18749237060547,
                4.369524002075195,
                0
            ]
        }
    ],
    "animations" : [
        {
            "channels" : [
                {
                    "sampler" : 0,
                    "target" : {
                        "node" : 1,
                        "path" : "translation"
                    }
                },
                {
                    "sampler" : 1,
                    "target" : {
                        "node" : 1,
                        "path" : "rotation"
                    }
                }
            ],
            "name" : "CameraAction",
            "samplers" : [
                {
                    "input" : 12,
                    "interpolation" : "STEP",
                    "output" : 13
                },
                {
                    "input" : 12,
                    "interpolation" : "STEP",
                    "output" : 14
                }
            ]
        },
        {
            "channels" : [
                {
                    "sampler" : 0,
                    "target" : {
                        "node" : 2,
                        "path" : "rotation"
                    }
                }
            ],
            "name" : "Cylinder.001Action.001",
            "samplers" : [
                {
                    "input" : 15,
                    "interpolation" : "LINEAR",
                    "output" : 16
                }
            ]
        },
        {
            "channels" : [
                {
                    "sampler" : 0,
                    "target" : {
                        "node" : 6,
                        "path" : "translation"
                    }
                },
                {
                    "sampler" : 1,
                    "target" : {
                        "node" : 6,
                        "path" : "rotation"
                    }
                }
            ],
            "name" : "CameraAction.001",
            "samplers" : [
                {
                    "input" : 12,
                    "interpolation" : "STEP",
                    "output" : 17
                },
                {
                    "input" : 12,
                    "interpolation" : "STEP",
                    "output" : 18
                }
            ]
        }
    ],
    "materials" : [
        {
            "doubleSided" : true,
            "emissiveFactor" : [
                0,
                0,
                0
            ],
            "name" : "coin",
            "pbrMetallicRoughness" : {
                "baseColorFactor" : [
                    0.8000000715255737,
                    0.17640982568264008,
                    0,
                    1
                ],
                "metallicFactor" : 0.8799999952316284,
                "roughnessFactor" : 0.4527272582054138
            }
        },
        {
            "doubleSided" : true,
            "emissiveFactor" : [
                0,
                0,
                0
            ],
            "name" : "coin face",
            "pbrMetallicRoughness" : {
                "baseColorTexture" : {
                    "index" : 0,
                    "texCoord" : 0
                },
                "metallicFactor" : 0,
                "roughnessFactor" : 0.5
            }
        },
        {
            "doubleSided" : true,
            "emissiveFactor" : [
                0,
                0,
                0
            ],
            "name" : "plane.001",
            "pbrMetallicRoughness" : {}
        }
    ],
    "meshes" : [
        {
            "name" : "Cylinder.002",
            "primitives" : [
                {
                    "attributes" : {
                        "POSITION" : 0,
                        "NORMAL" : 1,
                        "TEXCOORD_0" : 2
                    },
                    "indices" : 3,
                    "material" : 0
                },
                {
                    "attributes" : {
                        "POSITION" : 4,
                        "NORMAL" : 5,
                        "TEXCOORD_0" : 6
                    },
                    "indices" : 7,
                    "material" : 1
                }
            ]
        },
        {
            "name" : "Plane.001",
            "primitives" : [
                {
                    "attributes" : {
                        "POSITION" : 8,
                        "NORMAL" : 9,
                        "TEXCOORD_0" : 10
                    },
                    "indices" : 11,
                    "material" : 2
                }
            ]
        }
    ],
    "textures" : [
        {
            "source" : 0
        }
    ],
    "images" : [
        {
            "bufferView" : 8,
            "mimeType" : "image/png",
            "name" : "pirate"
        }
    ],
    "accessors" : [
        {
            "bufferView" : 0,
            "componentType" : 5126,
            "count" : 898,
            "max" : [
                2.511946439743042,
                2.5119481086730957,
                0.2977156341075897
            ],
            "min" : [
                -2.5119447708129883,
                -2.511943817138672,
                -0.2977156341075897
            ],
            "type" : "VEC3"
        },
        {
            "bufferView" : 1,
            "componentType" : 5126,
            "count" : 898,
            "type" : "VEC3"
        },
        {
            "bufferView" : 2,
            "componentType" : 5126,
            "count" : 898,
            "type" : "VEC2"
        },
        {
            "bufferView" : 3,
            "componentType" : 5123,
            "count" : 4224,
            "type" : "SCALAR"
        },
        {
            "bufferView" : 4,
            "componentType" : 5126,
            "count" : 128,
            "max" : [
                1.4883065223693848,
                1.4883079528808594,
                0.2977156341075897
            ],
            "min" : [
                -1.4883043766021729,
                -1.4883034229278564,
                -0.2977156341075897
            ],
            "type" : "VEC3"
        },
        {
            "bufferView" : 5,
            "componentType" : 5126,
            "count" : 128,
            "type" : "VEC3"
        },
        {
            "bufferView" : 6,
            "componentType" : 5126,
            "count" : 128,
            "type" : "VEC2"
        },
        {
            "bufferView" : 7,
            "componentType" : 5123,
            "count" : 372,
            "type" : "SCALAR"
        },
        {
            "bufferView" : 9,
            "componentType" : 5126,
            "count" : 18,
            "max" : [
                6.418298721313477,
                5.5312113761901855,
                5.282486438751221
            ],
            "min" : [
                -6.614079475402832,
                0,
                -5.2824859619140625
            ],
            "type" : "VEC3"
        },
        {
            "bufferView" : 10,
            "componentType" : 5126,
            "count" : 18,
            "type" : "VEC3"
        },
        {
            "bufferView" : 11,
            "componentType" : 5126,
            "count" : 18,
            "type" : "VEC2"
        },
        {
            "bufferView" : 12,
            "componentType" : 5123,
            "count" : 48,
            "type" : "SCALAR"
        },
        {
            "bufferView" : 13,
            "componentType" : 5126,
            "count" : 1,
            "max" : [
                0.03333333333333333
            ],
            "min" : [
                0.03333333333333333
            ],
            "type" : "SCALAR"
        },
        {
            "bufferView" : 14,
            "componentType" : 5126,
            "count" : 1,
            "type" : "VEC3"
        },
        {
            "bufferView" : 15,
            "componentType" : 5126,
            "count" : 1,
            "type" : "VEC4"
        },
        {
            "bufferView" : 16,
            "componentType" : 5126,
            "count" : 91,
            "max" : [
                3
            ],
            "min" : [
                0
            ],
            "type" : "SCALAR"
        },
        {
            "bufferView" : 17,
            "componentType" : 5126,
            "count" : 91,
            "type" : "VEC4"
        },
        {
            "bufferView" : 18,
            "componentType" : 5126,
            "count" : 1,
            "type" : "VEC3"
        },
        {
            "bufferView" : 19,
            "componentType" : 5126,
            "count" : 1,
            "type" : "VEC4"
        }
    ],
    "bufferViews" : [
        {
            "buffer" : 0,
            "byteLength" : 10776,
            "byteOffset" : 0
        },
        {
            "buffer" : 0,
            "byteLength" : 10776,
            "byteOffset" : 10776
        },
        {
            "buffer" : 0,
            "byteLength" : 7184,
            "byteOffset" : 21552
        },
        {
            "buffer" : 0,
            "byteLength" : 8448,
            "byteOffset" : 28736
        },
        {
            "buffer" : 0,
            "byteLength" : 1536,
            "byteOffset" : 37184
        },
        {
            "buffer" : 0,
            "byteLength" : 1536,
            "byteOffset" : 38720
        },
        {
            "buffer" : 0,
            "byteLength" : 1024,
            "byteOffset" : 40256
        },
        {
            "buffer" : 0,
            "byteLength" : 744,
            "byteOffset" : 41280
        },
        {
            "buffer" : 0,
            "byteLength" : 24055,
            "byteOffset" : 42024
        },
        {
            "buffer" : 0,
            "byteLength" : 216,
            "byteOffset" : 66080
        },
        {
            "buffer" : 0,
            "byteLength" : 216,
            "byteOffset" : 66296
        },
        {
            "buffer" : 0,
            "byteLength" : 144,
            "byteOffset" : 66512
        },
        {
            "buffer" : 0,
            "byteLength" : 96,
            "byteOffset" : 66656
        },
        {
            "buffer" : 0,
            "byteLength" : 4,
            "byteOffset" : 66752
        },
        {
            "buffer" : 0,
            "byteLength" : 12,
            "byteOffset" : 66756
        },
        {
            "buffer" : 0,
            "byteLength" : 16,
            "byteOffset" : 66768
        },
        {
            "buffer" : 0,
            "byteLength" : 364,
            "byteOffset" : 66784
        },
        {
            "buffer" : 0,
            "byteLength" : 1456,
            "byteOffset" : 67148
        },
        {
            "buffer" : 0,
            "byteLength" : 12,
            "byteOffset" : 68604
        },
        {
            "buffer" : 0,
            "byteLength" : 16,
            "byteOffset" : 68616
        }
    ],
    "buffers" : [
        {
            "byteLength" : 68632,
            "uri" : "data:application/octet-stream;base64,"
        }
    ]
}
